<svg width="44" height="44" viewBox="0 0 44 44" fill="none" xmlns="http://www.w3.org/2000/svg">
<path d="M17.875 23.8334C17.875 22.7394 18.3096 21.6901 19.0832 20.9166C19.8568 20.143 20.906 19.7084 22 19.7084C23.094 19.7084 24.1432 20.143 24.9168 20.9166C25.6904 21.6901 26.125 22.7394 26.125 23.8334C26.125 24.9274 25.6904 25.9766 24.9168 26.7502C24.1432 27.5238 23.094 27.9584 22 27.9584C20.906 27.9584 19.8568 27.5238 19.0832 26.7502C18.3096 25.9766 17.875 24.9274 17.875 23.8334Z" fill="#B8B8CA"/>
<path fill-rule="evenodd" clip-rule="evenodd" d="M13.7022 14.0103C13.7017 13.2537 13.8504 12.5045 14.1397 11.8054C14.429 11.1063 14.8533 10.4711 15.3883 9.93609C15.9233 9.4011 16.5585 8.97681 17.2576 8.6875C17.9567 8.39819 18.7059 8.24952 19.4625 8.25H24.5372C25.2938 8.24952 26.043 8.39819 26.7421 8.6875C27.4412 8.97681 28.0764 9.4011 28.6114 9.93609C29.1464 10.4711 29.5707 11.1063 29.86 11.8054C30.1493 12.5045 30.298 13.2537 30.2975 14.0103C30.2978 14.0234 30.3028 14.036 30.3115 14.0457C30.3203 14.0554 30.3322 14.0618 30.3452 14.0635L34.4335 14.3935C36.265 14.5438 37.7702 15.8968 38.113 17.7027C38.9835 22.309 39.048 27.0314 38.3037 31.6598L38.1258 32.7672C37.9627 33.7817 37.464 34.7122 36.7095 35.4099C35.955 36.1075 34.9884 36.532 33.9642 36.6153L30.402 36.9032C24.8098 37.3575 19.1899 37.3575 13.5977 36.9032L10.0355 36.6153C9.01105 36.5319 8.04419 36.1072 7.28968 35.4092C6.53518 34.7112 6.03663 33.7802 5.87385 32.7653L5.69601 31.6598C4.94985 27.0307 5.01585 22.3098 5.88668 17.7027C6.05319 16.8245 6.50339 16.0253 7.16811 15.4279C7.83283 14.8304 8.67532 14.4676 9.56618 14.3953L13.6545 14.0635C13.6675 14.0618 13.6794 14.0554 13.6881 14.0457C13.6969 14.036 13.7019 14.0234 13.7022 14.0103ZM21.9998 16.9583C20.1765 16.9583 18.4278 17.6827 17.1385 18.972C15.8492 20.2613 15.1248 22.01 15.1248 23.8333C15.1248 25.6567 15.8492 27.4054 17.1385 28.6947C18.4278 29.984 20.1765 30.7083 21.9998 30.7083C23.8232 30.7083 25.5719 29.984 26.8612 28.6947C28.1505 27.4054 28.8748 25.6567 28.8748 23.8333C28.8748 22.01 28.1505 20.2613 26.8612 18.972C25.5719 17.6827 23.8232 16.9583 21.9998 16.9583Z" fill="#B8B8CA"/>
</svg>
