<svg width="20" height="20" viewBox="0 0 20 20" fill="none" xmlns="http://www.w3.org/2000/svg">
<path fill-rule="evenodd" clip-rule="evenodd" d="M0 10C0 4.477 4.477 0 10 0C15.523 0 20 4.477 20 10C20 15.523 15.523 20 10 20C4.477 20 0 15.523 0 10ZM11 5.757C11 5.49178 10.8946 5.23743 10.7071 5.04989C10.5196 4.86236 10.2652 4.757 10 4.757C9.73478 4.757 9.48043 4.86236 9.29289 5.04989C9.10536 5.23743 9 5.49178 9 5.757V9H5.757C5.49178 9 5.23743 9.10536 5.04989 9.29289C4.86236 9.48043 4.757 9.73478 4.757 10C4.757 10.2652 4.86236 10.5196 5.04989 10.7071C5.23743 10.8946 5.49178 11 5.757 11H9V14.243C9 14.5082 9.10536 14.7626 9.29289 14.9501C9.48043 15.1376 9.73478 15.243 10 15.243C10.2652 15.243 10.5196 15.1376 10.7071 14.9501C10.8946 14.7626 11 14.5082 11 14.243V11H14.243C14.5082 11 14.7626 10.8946 14.9501 10.7071C15.1376 10.5196 15.243 10.2652 15.243 10C15.243 9.73478 15.1376 9.48043 14.9501 9.29289C14.7626 9.10536 14.5082 9 14.243 9H11V5.757Z" fill="#B8B8CA"/>
</svg>
